<svg width="35" height="31" viewBox="0 0 35 31" xmlns="http://www.w3.org/2000/svg" fill-rule="evenodd" clip-rule="evenodd" stroke-linejoin="round" stroke-miterlimit="1.414"><path d="M4.54 3.75a1.545 1.545 0 0 0-.8-.224c-.847 0-1.544.697-1.544 1.544 0 .539.283 1.041.744 1.32l8.37 5.05L12.9 8.8 4.54 3.75z" fill="#eedc00" fill-rule="nonzero"/><path d="M32.56 4.27a1.531 1.531 0 0 0-2.11-.52L22.08 8.8l1.59 2.64 8.37-5a1.541 1.541 0 0 0 .52-2.17z" fill="#fff200" fill-rule="nonzero"/><path d="M3.66 7.67l13.83 7.54 13.83-7.54L17.49 0 3.66 7.67z" fill="#bfbfbf" fill-rule="nonzero"/><path d="M31.22 22.21l.1-14.54L18 16l-.5 14.54 13.72-8.33z" fill="#dcdcdc" fill-rule="nonzero"/><path d="M31.22 22.21l.1-14.54L18 16l-.5 14.54 13.72-8.33z" fill="#d1d1d1" fill-rule="nonzero"/><path d="M3.76 22.21l-.1-14.54L16.98 16l.5 14.54-13.72-8.33z" fill="#ebebeb" fill-rule="nonzero"/><path d="M11.22 18.81a1.531 1.531 0 0 0-2.11-.52L.74 23.34 2.34 26l8.36-5.05a1.531 1.531 0 0 0 .52-2.14z" fill="#f9e500" fill-rule="nonzero"/><path d="M2.34 26c-.24.145-.515.221-.795.221-.845 0-1.54-.695-1.54-1.54 0-.845.695-1.54 1.54-1.54.536 0 1.036.281 1.315.739A1.557 1.557 0 0 1 2.34 26z" fill="#fed100" fill-rule="nonzero"/><path d="M25.87 18.29a1.537 1.537 0 0 0-.795-.221c-.845 0-1.541.696-1.541 1.541 0 .54.284 1.042.746 1.32L32.65 26l1.59-2.64-8.37-5.07z" fill="#f9e500" fill-rule="nonzero"/><path d="M32.65 26c.238.142.511.217.788.217.845 0 1.54-.695 1.54-1.54 0-.845-.695-1.54-1.54-1.54A1.541 1.541 0 0 0 32.65 26z" fill="#fed100" fill-rule="nonzero"/><path d="M3.66 7.67l13.83 6.52 13.83-6.52L19 15.96 17.48 30.5l-1.5-14.54L3.66 7.67z" fill="#0e2844" fill-rule="nonzero"/></svg>